<mxfile host="app.diagrams.net" modified="2024-03-07T13:39:32.988Z" agent="Mozilla/5.0 (Windows NT 10.0; Win64; x64; rv:123.0) Gecko/20100101 Firefox/123.0" etag="nzn1UpHTQkl3_FV06F8N" version="24.0.2" type="github">
  <diagram name="Page-1" id="akqyKi0w9UuJNH26rZH2">
    <mxGraphModel dx="1442" dy="835" grid="0" gridSize="10" guides="1" tooltips="1" connect="1" arrows="1" fold="1" page="0" pageScale="1" pageWidth="850" pageHeight="1100" math="0" shadow="0">
      <root>
        <mxCell id="0" />
        <mxCell id="1" parent="0" />
        <mxCell id="f_jKXFgEopd7oYcj2sJP-1" style="edgeStyle=orthogonalEdgeStyle;rounded=0;orthogonalLoop=1;jettySize=auto;html=1;exitX=1;exitY=0.5;exitDx=0;exitDy=0;startArrow=classic;startFill=0;" parent="1" source="rtLIbUINDSShz8pWYrtB-1" target="rtLIbUINDSShz8pWYrtB-2" edge="1">
          <mxGeometry relative="1" as="geometry" />
        </mxCell>
        <mxCell id="rtLIbUINDSShz8pWYrtB-1" value="satellite radio" style="rounded=1;whiteSpace=wrap;html=1;fontSize=16;fillColor=#dae8fc;strokeColor=#6c8ebf;" parent="1" vertex="1">
          <mxGeometry x="234" y="241" width="120" height="60" as="geometry" />
        </mxCell>
        <mxCell id="f_jKXFgEopd7oYcj2sJP-2" value="" style="edgeStyle=orthogonalEdgeStyle;rounded=0;orthogonalLoop=1;jettySize=auto;html=1;" parent="1" source="rtLIbUINDSShz8pWYrtB-2" target="rtLIbUINDSShz8pWYrtB-1" edge="1">
          <mxGeometry relative="1" as="geometry" />
        </mxCell>
        <mxCell id="f_jKXFgEopd7oYcj2sJP-3" style="edgeStyle=orthogonalEdgeStyle;rounded=0;orthogonalLoop=1;jettySize=auto;html=1;exitX=1;exitY=0.5;exitDx=0;exitDy=0;entryX=0;entryY=0.5;entryDx=0;entryDy=0;startArrow=classic;startFill=0;" parent="1" source="rtLIbUINDSShz8pWYrtB-2" target="rtLIbUINDSShz8pWYrtB-3" edge="1">
          <mxGeometry relative="1" as="geometry" />
        </mxCell>
        <mxCell id="f_jKXFgEopd7oYcj2sJP-4" value="" style="edgeStyle=orthogonalEdgeStyle;rounded=0;orthogonalLoop=1;jettySize=auto;html=1;startArrow=classic;startFill=1;" parent="1" source="rtLIbUINDSShz8pWYrtB-2" target="rtLIbUINDSShz8pWYrtB-3" edge="1">
          <mxGeometry relative="1" as="geometry" />
        </mxCell>
        <mxCell id="rtLIbUINDSShz8pWYrtB-2" value="channel (RF path)" style="rounded=1;whiteSpace=wrap;html=1;fontSize=16;fillColor=#dae8fc;strokeColor=#6c8ebf;" parent="1" vertex="1">
          <mxGeometry x="388" y="241" width="120" height="60" as="geometry" />
        </mxCell>
        <mxCell id="rtLIbUINDSShz8pWYrtB-3" value="&amp;nbsp;UE (ground radio)" style="rounded=1;whiteSpace=wrap;html=1;fontSize=16;fillColor=#dae8fc;strokeColor=#6c8ebf;" parent="1" vertex="1">
          <mxGeometry x="546" y="241" width="120" height="60" as="geometry" />
        </mxCell>
        <mxCell id="f_jKXFgEopd7oYcj2sJP-5" style="edgeStyle=orthogonalEdgeStyle;rounded=0;orthogonalLoop=1;jettySize=auto;html=1;exitX=1;exitY=0.25;exitDx=0;exitDy=0;entryX=0;entryY=0.25;entryDx=0;entryDy=0;" parent="1" source="rtLIbUINDSShz8pWYrtB-4" target="rtLIbUINDSShz8pWYrtB-1" edge="1">
          <mxGeometry relative="1" as="geometry" />
        </mxCell>
        <mxCell id="f_jKXFgEopd7oYcj2sJP-6" style="edgeStyle=orthogonalEdgeStyle;rounded=0;orthogonalLoop=1;jettySize=auto;html=1;exitX=1;exitY=0.75;exitDx=0;exitDy=0;entryX=0;entryY=0.75;entryDx=0;entryDy=0;" parent="1" source="rtLIbUINDSShz8pWYrtB-4" target="rtLIbUINDSShz8pWYrtB-1" edge="1">
          <mxGeometry relative="1" as="geometry" />
        </mxCell>
        <mxCell id="rtLIbUINDSShz8pWYrtB-4" value="&lt;font style=&quot;font-size: 10px;&quot;&gt;AI accelerator&lt;br style=&quot;font-size: 10px;&quot;&gt;for LEO&lt;font style=&quot;font-size: 10px;&quot;&gt; application:&lt;/font&gt;&lt;/font&gt;&lt;font style=&quot;font-size: 10px;&quot;&gt;&lt;br style=&quot;font-size: 10px;&quot;&gt;-flexible payload&lt;/font&gt;&lt;div style=&quot;font-size: 10px;&quot;&gt;&lt;font style=&quot;font-size: 10px;&quot;&gt;-multibeam&amp;nbsp; DRA&lt;br style=&quot;font-size: 10px;&quot;&gt;&lt;/font&gt;&lt;/div&gt;" style="rounded=1;whiteSpace=wrap;html=1;fontSize=10;spacing=0;fillColor=#ffe6cc;strokeColor=#d79b00;" parent="1" vertex="1">
          <mxGeometry x="74" y="241" width="120" height="60" as="geometry" />
        </mxCell>
        <mxCell id="f_jKXFgEopd7oYcj2sJP-8" value="" style="shape=curlyBracket;whiteSpace=wrap;html=1;rounded=1;labelPosition=left;verticalLabelPosition=middle;align=right;verticalAlign=middle;rotation=90;" parent="1" vertex="1">
          <mxGeometry x="446.5" y="-12.5" width="20" height="445" as="geometry" />
        </mxCell>
        <mxCell id="f_jKXFgEopd7oYcj2sJP-9" value="" style="shape=curlyBracket;whiteSpace=wrap;html=1;rounded=1;labelPosition=left;verticalLabelPosition=middle;align=right;verticalAlign=middle;rotation=-90;" parent="1" vertex="1">
          <mxGeometry x="364" y="41" width="20" height="608" as="geometry" />
        </mxCell>
        <mxCell id="f_jKXFgEopd7oYcj2sJP-10" value="classical approach (GEO)" style="text;html=1;strokeColor=none;fillColor=none;align=center;verticalAlign=middle;whiteSpace=wrap;rounded=0;fontSize=16;" parent="1" vertex="1">
          <mxGeometry x="346" y="164" width="229.5" height="30" as="geometry" />
        </mxCell>
        <mxCell id="f_jKXFgEopd7oYcj2sJP-13" value="Spaice approach (LEO), AI enabled" style="text;html=1;strokeColor=none;fillColor=none;align=center;verticalAlign=middle;whiteSpace=wrap;rounded=0;fontSize=16;" parent="1" vertex="1">
          <mxGeometry x="234" y="370" width="289" height="30" as="geometry" />
        </mxCell>
        <mxCell id="dyPH3C41059jYyeXzHxH-2" value="" style="endArrow=none;html=1;rounded=0;" parent="1" source="dyPH3C41059jYyeXzHxH-29" edge="1">
          <mxGeometry width="50" height="50" relative="1" as="geometry">
            <mxPoint x="939" y="675" as="sourcePoint" />
            <mxPoint x="943" y="164" as="targetPoint" />
          </mxGeometry>
        </mxCell>
        <mxCell id="dyPH3C41059jYyeXzHxH-6" value="" style="endArrow=none;html=1;rounded=0;" parent="1" source="dyPH3C41059jYyeXzHxH-18" edge="1">
          <mxGeometry width="50" height="50" relative="1" as="geometry">
            <mxPoint x="1419" y="675" as="sourcePoint" />
            <mxPoint x="1423" y="164" as="targetPoint" />
          </mxGeometry>
        </mxCell>
        <mxCell id="dyPH3C41059jYyeXzHxH-7" value="ControlCenter Code incl. Scenario" style="rounded=1;whiteSpace=wrap;html=1;" parent="1" vertex="1">
          <mxGeometry x="905" y="94" width="78" height="39" as="geometry" />
        </mxCell>
        <mxCell id="dyPH3C41059jYyeXzHxH-8" value="ChEM sw" style="rounded=1;whiteSpace=wrap;html=1;" parent="1" vertex="1">
          <mxGeometry x="1247" y="94" width="78" height="39" as="geometry" />
        </mxCell>
        <mxCell id="dyPH3C41059jYyeXzHxH-9" value="gNB PC1" style="rounded=1;whiteSpace=wrap;html=1;" parent="1" vertex="1">
          <mxGeometry x="1385" y="91" width="78" height="39" as="geometry" />
        </mxCell>
        <mxCell id="dyPH3C41059jYyeXzHxH-10" value="" style="endArrow=none;html=1;rounded=0;" parent="1" source="dyPH3C41059jYyeXzHxH-20" edge="1">
          <mxGeometry width="50" height="50" relative="1" as="geometry">
            <mxPoint x="1565" y="677" as="sourcePoint" />
            <mxPoint x="1569" y="166" as="targetPoint" />
          </mxGeometry>
        </mxCell>
        <mxCell id="dyPH3C41059jYyeXzHxH-11" value="&lt;div&gt;UE1 PC&lt;br&gt;&lt;/div&gt;" style="rounded=1;whiteSpace=wrap;html=1;" parent="1" vertex="1">
          <mxGeometry x="1531" y="93" width="78" height="39" as="geometry" />
        </mxCell>
        <mxCell id="dyPH3C41059jYyeXzHxH-12" value="" style="endArrow=none;html=1;rounded=0;" parent="1" source="dyPH3C41059jYyeXzHxH-22" edge="1">
          <mxGeometry width="50" height="50" relative="1" as="geometry">
            <mxPoint x="1729" y="678" as="sourcePoint" />
            <mxPoint x="1733" y="167" as="targetPoint" />
          </mxGeometry>
        </mxCell>
        <mxCell id="dyPH3C41059jYyeXzHxH-13" value="HW PC" style="rounded=1;whiteSpace=wrap;html=1;" parent="1" vertex="1">
          <mxGeometry x="1695" y="94" width="78" height="39" as="geometry" />
        </mxCell>
        <mxCell id="dyPH3C41059jYyeXzHxH-15" value="" style="endArrow=none;html=1;rounded=0;" parent="1" source="dyPH3C41059jYyeXzHxH-30" target="dyPH3C41059jYyeXzHxH-14" edge="1">
          <mxGeometry width="50" height="50" relative="1" as="geometry">
            <mxPoint x="939" y="675" as="sourcePoint" />
            <mxPoint x="943" y="164" as="targetPoint" />
          </mxGeometry>
        </mxCell>
        <mxCell id="dyPH3C41059jYyeXzHxH-14" value="start scenario" style="rhombus;whiteSpace=wrap;html=1;" parent="1" vertex="1">
          <mxGeometry x="901.75" y="477" width="84.5" height="38" as="geometry" />
        </mxCell>
        <mxCell id="dyPH3C41059jYyeXzHxH-17" value="" style="endArrow=none;html=1;rounded=0;" parent="1" edge="1">
          <mxGeometry width="50" height="50" relative="1" as="geometry">
            <mxPoint x="1283" y="958" as="sourcePoint" />
            <mxPoint x="1286" y="153" as="targetPoint" />
          </mxGeometry>
        </mxCell>
        <mxCell id="dyPH3C41059jYyeXzHxH-19" value="" style="endArrow=none;html=1;rounded=0;" parent="1" target="dyPH3C41059jYyeXzHxH-18" edge="1">
          <mxGeometry width="50" height="50" relative="1" as="geometry">
            <mxPoint x="1419" y="951" as="sourcePoint" />
            <mxPoint x="1423" y="164" as="targetPoint" />
          </mxGeometry>
        </mxCell>
        <mxCell id="dyPH3C41059jYyeXzHxH-25" style="edgeStyle=orthogonalEdgeStyle;rounded=0;orthogonalLoop=1;jettySize=auto;html=1;exitX=0;exitY=0.5;exitDx=0;exitDy=0;" parent="1" source="dyPH3C41059jYyeXzHxH-18" edge="1">
          <mxGeometry relative="1" as="geometry">
            <mxPoint x="943" y="244" as="targetPoint" />
          </mxGeometry>
        </mxCell>
        <mxCell id="dyPH3C41059jYyeXzHxH-18" value="start s/w" style="rhombus;whiteSpace=wrap;html=1;" parent="1" vertex="1">
          <mxGeometry x="1385" y="231" width="69" height="25" as="geometry" />
        </mxCell>
        <mxCell id="dyPH3C41059jYyeXzHxH-21" value="" style="endArrow=none;html=1;rounded=0;" parent="1" target="dyPH3C41059jYyeXzHxH-20" edge="1">
          <mxGeometry width="50" height="50" relative="1" as="geometry">
            <mxPoint x="1565" y="944" as="sourcePoint" />
            <mxPoint x="1569" y="166" as="targetPoint" />
          </mxGeometry>
        </mxCell>
        <mxCell id="dyPH3C41059jYyeXzHxH-26" style="edgeStyle=orthogonalEdgeStyle;rounded=0;orthogonalLoop=1;jettySize=auto;html=1;exitX=0;exitY=0.5;exitDx=0;exitDy=0;" parent="1" source="dyPH3C41059jYyeXzHxH-20" edge="1">
          <mxGeometry relative="1" as="geometry">
            <mxPoint x="945.0588235294117" y="292.2352941176471" as="targetPoint" />
          </mxGeometry>
        </mxCell>
        <mxCell id="dyPH3C41059jYyeXzHxH-20" value="start s/w" style="rhombus;whiteSpace=wrap;html=1;" parent="1" vertex="1">
          <mxGeometry x="1535.5" y="280" width="69" height="25" as="geometry" />
        </mxCell>
        <mxCell id="dyPH3C41059jYyeXzHxH-24" value="" style="endArrow=none;html=1;rounded=0;" parent="1" target="dyPH3C41059jYyeXzHxH-22" edge="1">
          <mxGeometry width="50" height="50" relative="1" as="geometry">
            <mxPoint x="1729" y="952" as="sourcePoint" />
            <mxPoint x="1733" y="167" as="targetPoint" />
          </mxGeometry>
        </mxCell>
        <mxCell id="dyPH3C41059jYyeXzHxH-28" style="edgeStyle=orthogonalEdgeStyle;rounded=0;orthogonalLoop=1;jettySize=auto;html=1;exitX=0;exitY=0.5;exitDx=0;exitDy=0;" parent="1" source="dyPH3C41059jYyeXzHxH-22" edge="1">
          <mxGeometry relative="1" as="geometry">
            <mxPoint x="944" y="365" as="targetPoint" />
          </mxGeometry>
        </mxCell>
        <mxCell id="dyPH3C41059jYyeXzHxH-22" value="start s/w" style="rhombus;whiteSpace=wrap;html=1;" parent="1" vertex="1">
          <mxGeometry x="1695" y="352" width="69" height="25" as="geometry" />
        </mxCell>
        <mxCell id="dyPH3C41059jYyeXzHxH-32" value="" style="endArrow=none;html=1;rounded=0;" parent="1" source="dyPH3C41059jYyeXzHxH-36" target="dyPH3C41059jYyeXzHxH-30" edge="1">
          <mxGeometry width="50" height="50" relative="1" as="geometry">
            <mxPoint x="944" y="669" as="sourcePoint" />
            <mxPoint x="944" y="491" as="targetPoint" />
          </mxGeometry>
        </mxCell>
        <mxCell id="dyPH3C41059jYyeXzHxH-30" value="start data acquistion" style="rhombus;whiteSpace=wrap;html=1;" parent="1" vertex="1">
          <mxGeometry x="909.5" y="554" width="69" height="25" as="geometry" />
        </mxCell>
        <mxCell id="dyPH3C41059jYyeXzHxH-35" value="" style="endArrow=none;html=1;rounded=0;" parent="1" source="dyPH3C41059jYyeXzHxH-40" target="dyPH3C41059jYyeXzHxH-33" edge="1">
          <mxGeometry width="50" height="50" relative="1" as="geometry">
            <mxPoint x="944" y="831" as="sourcePoint" />
            <mxPoint x="944" y="579" as="targetPoint" />
          </mxGeometry>
        </mxCell>
        <mxCell id="dyPH3C41059jYyeXzHxH-33" value="power off payload" style="rhombus;whiteSpace=wrap;html=1;" parent="1" vertex="1">
          <mxGeometry x="909.5" y="745" width="69" height="25" as="geometry" />
        </mxCell>
        <mxCell id="dyPH3C41059jYyeXzHxH-37" value="" style="endArrow=none;html=1;rounded=0;" parent="1" source="dyPH3C41059jYyeXzHxH-33" target="dyPH3C41059jYyeXzHxH-36" edge="1">
          <mxGeometry width="50" height="50" relative="1" as="geometry">
            <mxPoint x="944" y="711" as="sourcePoint" />
            <mxPoint x="944" y="579" as="targetPoint" />
          </mxGeometry>
        </mxCell>
        <mxCell id="dyPH3C41059jYyeXzHxH-36" value="power on payload" style="rhombus;whiteSpace=wrap;html=1;" parent="1" vertex="1">
          <mxGeometry x="909.5" y="635" width="69" height="25" as="geometry" />
        </mxCell>
        <mxCell id="dyPH3C41059jYyeXzHxH-39" value="" style="endArrow=none;html=1;rounded=0;" parent="1" source="dyPH3C41059jYyeXzHxH-43" target="dyPH3C41059jYyeXzHxH-38" edge="1">
          <mxGeometry width="50" height="50" relative="1" as="geometry">
            <mxPoint x="947" y="959" as="sourcePoint" />
            <mxPoint x="944" y="736" as="targetPoint" />
          </mxGeometry>
        </mxCell>
        <mxCell id="dyPH3C41059jYyeXzHxH-38" value="data acquisition stops" style="rhombus;whiteSpace=wrap;html=1;" parent="1" vertex="1">
          <mxGeometry x="909.5" y="848" width="69" height="25" as="geometry" />
        </mxCell>
        <mxCell id="dyPH3C41059jYyeXzHxH-41" value="" style="endArrow=none;html=1;rounded=0;" parent="1" source="dyPH3C41059jYyeXzHxH-38" target="dyPH3C41059jYyeXzHxH-40" edge="1">
          <mxGeometry width="50" height="50" relative="1" as="geometry">
            <mxPoint x="946" y="884" as="sourcePoint" />
            <mxPoint x="944" y="736" as="targetPoint" />
          </mxGeometry>
        </mxCell>
        <mxCell id="dyPH3C41059jYyeXzHxH-40" value="scenario stops" style="rhombus;whiteSpace=wrap;html=1;" parent="1" vertex="1">
          <mxGeometry x="909.5" y="800" width="69" height="25" as="geometry" />
        </mxCell>
        <mxCell id="dyPH3C41059jYyeXzHxH-42" value="" style="endArrow=none;html=1;rounded=0;" parent="1" source="dyPH3C41059jYyeXzHxH-14" target="dyPH3C41059jYyeXzHxH-29" edge="1">
          <mxGeometry width="50" height="50" relative="1" as="geometry">
            <mxPoint x="944" y="466" as="sourcePoint" />
            <mxPoint x="943" y="164" as="targetPoint" />
          </mxGeometry>
        </mxCell>
        <mxCell id="dyPH3C41059jYyeXzHxH-29" value="start s/w" style="rhombus;whiteSpace=wrap;html=1;" parent="1" vertex="1">
          <mxGeometry x="909.5" y="159" width="69" height="25" as="geometry" />
        </mxCell>
        <mxCell id="dyPH3C41059jYyeXzHxH-43" value="data is archived" style="rhombus;whiteSpace=wrap;html=1;" parent="1" vertex="1">
          <mxGeometry x="909.5" y="923" width="69" height="25" as="geometry" />
        </mxCell>
        <mxCell id="cFXwHNUh8NjnOuUYUcD7-1" value="" style="endArrow=classic;html=1;rounded=0;fontSize=12;startSize=8;endSize=8;curved=1;" parent="1" edge="1">
          <mxGeometry width="50" height="50" relative="1" as="geometry">
            <mxPoint x="944" y="676" as="sourcePoint" />
            <mxPoint x="1116" y="676" as="targetPoint" />
          </mxGeometry>
        </mxCell>
        <mxCell id="cFXwHNUh8NjnOuUYUcD7-3" value="Weight Matrix Code incl. iWave code" style="rounded=1;whiteSpace=wrap;html=1;" parent="1" vertex="1">
          <mxGeometry x="1076" y="94" width="78" height="39" as="geometry" />
        </mxCell>
        <mxCell id="cFXwHNUh8NjnOuUYUcD7-4" value="" style="endArrow=none;html=1;rounded=0;entryX=0.5;entryY=1;entryDx=0;entryDy=0;" parent="1" target="cFXwHNUh8NjnOuUYUcD7-3" edge="1">
          <mxGeometry width="50" height="50" relative="1" as="geometry">
            <mxPoint x="1112" y="958" as="sourcePoint" />
            <mxPoint x="1112.4892182109106" y="390.9960935546778" as="targetPoint" />
          </mxGeometry>
        </mxCell>
        <mxCell id="cFXwHNUh8NjnOuUYUcD7-9" value="data" style="text;html=1;strokeColor=none;fillColor=none;align=center;verticalAlign=middle;whiteSpace=wrap;rounded=0;fontSize=16;" parent="1" vertex="1">
          <mxGeometry x="972" y="646" width="101" height="30" as="geometry" />
        </mxCell>
        <mxCell id="cFXwHNUh8NjnOuUYUcD7-10" value="" style="endArrow=classic;html=1;rounded=0;fontSize=12;startSize=8;endSize=8;curved=1;" parent="1" edge="1">
          <mxGeometry width="50" height="50" relative="1" as="geometry">
            <mxPoint x="1114" y="696" as="sourcePoint" />
            <mxPoint x="1286" y="696" as="targetPoint" />
          </mxGeometry>
        </mxCell>
        <mxCell id="cFXwHNUh8NjnOuUYUcD7-11" value="data" style="text;html=1;strokeColor=none;fillColor=none;align=center;verticalAlign=middle;whiteSpace=wrap;rounded=0;fontSize=16;" parent="1" vertex="1">
          <mxGeometry x="1142" y="666" width="101" height="30" as="geometry" />
        </mxCell>
        <mxCell id="XN0WKmRxlIbtqyMM3pOz-1" value="wait until confirmations arrived" style="text;html=1;align=center;verticalAlign=middle;whiteSpace=wrap;rounded=0;fontSize=16;rotation=-90;" vertex="1" parent="1">
          <mxGeometry x="797" y="313" width="238" height="30" as="geometry" />
        </mxCell>
        <mxCell id="XN0WKmRxlIbtqyMM3pOz-5" value="starts callback functions" style="rhombus;whiteSpace=wrap;html=1;" vertex="1" parent="1">
          <mxGeometry x="909.5" y="194" width="69" height="25" as="geometry" />
        </mxCell>
      </root>
    </mxGraphModel>
  </diagram>
</mxfile>
